<svg width="25" height="24" viewBox="0 0 25 24" fill="none" xmlns="http://www.w3.org/2000/svg">
<path fill-rule="evenodd" clip-rule="evenodd" d="M5.5223 2H8.9023C10.3123 2 11.4423 3.15 11.4423 4.561V7.97C11.4423 9.39 10.3123 10.53 8.9023 10.53H5.5223C4.1223 10.53 2.9823 9.39 2.9823 7.97V4.561C2.9823 3.15 4.1223 2 5.5223 2ZM5.5223 13.4697H8.9023C10.3123 13.4697 11.4423 14.6107 11.4423 16.0307V19.4397C11.4423 20.8497 10.3123 21.9997 8.9023 21.9997H5.5223C4.1223 21.9997 2.9823 20.8497 2.9823 19.4397V16.0307C2.9823 14.6107 4.1223 13.4697 5.5223 13.4697ZM20.4424 2H17.0624C15.6524 2 14.5224 3.15 14.5224 4.561V7.97C14.5224 9.39 15.6524 10.53 17.0624 10.53H20.4424C21.8424 10.53 22.9824 9.39 22.9824 7.97V4.561C22.9824 3.15 21.8424 2 20.4424 2ZM17.0624 13.4697H20.4424C21.8424 13.4697 22.9824 14.6107 22.9824 16.0307V19.4397C22.9824 20.8497 21.8424 21.9997 20.4424 21.9997H17.0624C15.6524 21.9997 14.5224 20.8497 14.5224 19.4397V16.0307C14.5224 14.6107 15.6524 13.4697 17.0624 13.4697Z" fill="#E2698D"/>
</svg>
