<svg width="117" height="22" viewBox="0 0 117 22" fill="none" xmlns="http://www.w3.org/2000/svg">
<path d="M18.2113 0V20.8224C15.9106 20.8224 14.0455 18.9573 14.0455 16.6565V11.9625H5.14831V16.6565C5.14831 18.9573 3.28318 20.8224 0.982422 20.8224V0C3.28318 0 5.14831 1.86513 5.14831 4.16589V8.56166H14.0455V4.16589C14.0455 1.86513 15.9106 0 18.2113 0Z" fill="#E2698D"/>
<path d="M37.6362 12.2011C37.6362 12.7977 37.5965 13.3347 37.5172 13.812H25.4659C25.565 15.0053 25.9816 15.94 26.7156 16.6162C27.4496 17.2924 28.3522 17.6304 29.4234 17.6304C30.9708 17.6304 32.0718 16.9642 32.7264 15.6317H37.2196C36.7435 17.2228 35.831 18.5353 34.482 19.5695C33.1331 20.5838 31.4766 21.0909 29.5127 21.0909C27.9257 21.0909 26.4974 20.7429 25.2278 20.0468C23.978 19.3308 22.9961 18.3265 22.2819 17.0338C21.5876 15.7411 21.2404 14.2495 21.2404 12.5591C21.2404 10.8487 21.5876 9.34722 22.2819 8.05452C22.9762 6.76182 23.9483 5.76743 25.198 5.07137C26.4478 4.3753 27.886 4.02726 29.5127 4.02726C31.0799 4.02726 32.4784 4.36535 33.7084 5.04153C34.9581 5.71771 35.9202 6.68227 36.5947 7.93519C37.289 9.16823 37.6362 10.5902 37.6362 12.2011ZM33.3215 11.0078C33.3017 9.93391 32.9149 9.07874 32.161 8.44233C31.4072 7.78604 30.4848 7.45789 29.3937 7.45789C28.3621 7.45789 27.4893 7.77609 26.7751 8.4125C26.0808 9.02902 25.6543 9.89413 25.4956 11.0078H33.3215Z" fill="#E2698D"/>
<path d="M44.8428 6.86126C45.3784 5.9862 46.0727 5.30007 46.9258 4.80288C47.7986 4.30569 48.7905 4.05709 49.9014 4.05709V8.44233H48.8004C47.4911 8.44233 46.4992 8.75059 45.8248 9.36711C45.1701 9.98363 44.8428 11.0576 44.8428 12.5889V20.8224H40.6769V4.29574H44.8428V6.86126Z" fill="#E2698D"/>
<path d="M71.3646 0L64.6159 18.4471C64.094 19.8737 62.7367 20.8224 61.2176 20.8224C59.6986 20.8224 58.3413 19.8737 57.8194 18.4471L51.0707 0H51.2389C53.8093 0 56.0968 1.63048 56.9353 4.06031L61.2474 16.5565L65.5339 4.06946C66.3696 1.63492 68.6594 0 71.2334 0H71.3646Z" fill="#E2698D"/>
<path d="M89.1867 12.2011C89.1867 12.7977 89.1471 13.3347 89.0677 13.812H77.0164C77.1156 15.0053 77.5322 15.94 78.2662 16.6162C79.0002 17.2924 79.9028 17.6304 80.974 17.6304C81.0911 17.6304 81.2057 17.6266 81.3176 17.619C83.61 17.4628 85.7327 15.6317 88.0304 15.6317H88.7702C88.2941 17.2228 87.3815 18.5353 86.0326 19.5695C84.6836 20.5838 83.0272 21.0909 81.0633 21.0909C79.4762 21.0909 78.0479 20.7429 76.7783 20.0468C75.5286 19.3308 74.5466 18.3265 73.8325 17.0338C73.1382 15.7411 72.791 14.2495 72.791 12.5591C72.791 10.8487 73.1382 9.34722 73.8325 8.05452C74.5268 6.76182 75.4988 5.76743 76.7486 5.07137C77.9984 4.3753 79.4366 4.02726 81.0633 4.02726C82.6304 4.02726 84.029 4.36535 85.2589 5.04153C86.5087 5.71771 87.4708 6.68227 88.1453 7.93519C88.8396 9.16823 89.1867 10.5902 89.1867 12.2011ZM84.8721 11.0078C84.8522 9.93391 84.4654 9.07874 83.7116 8.44233C82.9577 7.78604 82.0353 7.45789 80.9442 7.45789C79.9127 7.45789 79.0398 7.77609 78.3257 8.4125C77.6314 9.02902 77.2049 9.89413 77.0462 11.0078H84.8721Z" fill="#E2698D"/>
<path d="M98.5358 21.0909C97.1869 21.0909 95.9768 20.8523 94.9055 20.375C93.8343 19.8778 92.9813 19.2115 92.3465 18.3762C91.7315 17.541 91.3943 16.6162 91.3348 15.6019H95.5304C95.6098 16.2383 95.9173 16.7653 96.4529 17.183C97.0083 17.6006 97.6927 17.8094 98.5061 17.8094C99.2996 17.8094 99.9145 17.6503 100.351 17.3321C100.807 17.0139 101.035 16.6062 101.035 16.109C101.035 15.5721 100.758 15.1743 100.202 14.9158C99.6666 14.6373 98.8036 14.339 97.6134 14.0208C96.3834 13.7225 95.3717 13.4143 94.5782 13.0961C93.8046 12.7779 93.1301 12.2906 92.5548 11.6343C91.9993 10.978 91.7216 10.093 91.7216 8.9793C91.7216 8.06446 91.9795 7.22918 92.4953 6.47345C93.0309 5.71771 93.7847 5.12108 94.7568 4.68355C95.7486 4.24603 96.9091 4.02726 98.2383 4.02726C100.202 4.02726 101.769 4.52445 102.94 5.51884C104.11 6.49334 104.755 7.81587 104.874 9.48643H100.887C100.827 8.83014 100.549 8.31306 100.053 7.93519C99.5773 7.53744 98.9326 7.33856 98.1192 7.33856C97.3654 7.33856 96.7802 7.47778 96.3636 7.7562C95.9669 8.03463 95.7685 8.42244 95.7685 8.91964C95.7685 9.47649 96.0462 9.90408 96.6017 10.2024C97.1571 10.4808 98.02 10.7692 99.1905 11.0675C100.381 11.3658 101.363 11.6741 102.136 11.9923C102.91 12.3105 103.575 12.8077 104.13 13.4839C104.705 14.1402 105.003 15.0152 105.023 16.109C105.023 17.0637 104.755 17.9188 104.219 18.6746C103.704 19.4303 102.95 20.0269 101.958 20.4644C100.986 20.8821 99.8451 21.0909 98.5358 21.0909Z" fill="#E2698D"/>
<path d="M113.293 7.72637V15.7212C113.293 16.2781 113.422 16.6858 113.679 16.9443C113.957 17.183 114.413 17.3023 115.048 17.3023H116.982V20.8224H114.364C110.853 20.8224 109.097 19.1121 109.097 15.6914V7.72637H107.133V4.29574H109.097V0.20882H109.206C111.463 0.20882 113.293 2.0386 113.293 4.29574H116.982V7.72637H113.293Z" fill="#E2698D"/>
</svg>
