<svg width="17" height="29" viewBox="0 0 17 29" fill="none" xmlns="http://www.w3.org/2000/svg">
<path fill-rule="evenodd" clip-rule="evenodd" d="M2.76961 3.52932C2.76961 2.56675 3.54993 1.78644 4.5125 1.78644C5.47506 1.78644 6.25538 2.56675 6.25538 3.52932C6.25538 4.49189 5.47506 5.2722 4.5125 5.2722C3.54993 5.2722 2.76961 4.49189 2.76961 3.52932ZM8.04182 3.52932C8.04182 5.20929 6.86803 6.61512 5.29584 6.97141V8.94099H8.04094V10.588H5.29584V12.5576C6.86789 12.914 8.04153 14.3197 8.04153 15.9996C8.04153 17.9488 6.4614 19.5289 4.51221 19.5289C2.56302 19.5289 0.982891 17.9488 0.982891 15.9996C0.982891 14.3483 2.117 12.9618 3.64882 12.5767V10.588H0.9823L0.9823 8.94099H3.64882V6.9522C2.11714 6.56694 0.983175 5.18056 0.983175 3.52932C0.983175 1.58013 2.56331 0 4.5125 0C6.46169 0 8.04182 1.58013 8.04182 3.52932ZM16.9825 15.9996C16.9825 17.9488 15.4023 19.5289 13.4532 19.5289C11.504 19.5289 9.92383 17.9488 9.92383 15.9996C9.92383 14.0504 11.504 12.4703 13.4532 12.4703C15.4023 12.4703 16.9825 14.0504 16.9825 15.9996ZM8.04153 24.9406C8.04153 26.8898 6.4614 28.4699 4.51221 28.4699C2.56302 28.4699 0.982891 26.8898 0.982891 24.9406C0.982891 22.9914 2.56302 21.4113 4.51221 21.4113C6.4614 21.4113 8.04153 22.9914 8.04153 24.9406ZM13.4532 28.4699C15.4023 28.4699 16.9825 26.8898 16.9825 24.9406C16.9825 22.9914 15.4023 21.4113 13.4532 21.4113C11.504 21.4113 9.92383 22.9914 9.92383 24.9406C9.92383 26.8898 11.504 28.4699 13.4532 28.4699Z" fill="#E2698D"/>
</svg>
