<svg width="25" height="24" viewBox="0 0 25 24" fill="none" xmlns="http://www.w3.org/2000/svg">
<path fill-rule="evenodd" clip-rule="evenodd" d="M2.98242 12.015C2.98242 6.74712 7.19242 2 13.0024 2C18.6824 2 22.9824 6.65699 22.9824 11.985C22.9824 18.1642 17.9424 22 12.9824 22C11.3424 22 9.52242 21.5593 8.06242 20.698C7.55242 20.3876 7.12242 20.1572 6.57242 20.3375L4.55242 20.9384C4.04242 21.0986 3.58242 20.698 3.73242 20.1572L4.40242 17.9139C4.51242 17.6034 4.49242 17.2729 4.33242 17.0125C3.47242 15.4301 2.98242 13.6975 2.98242 12.015ZM11.6824 12.015C11.6824 12.7261 12.2524 13.2969 12.9624 13.307C13.6724 13.307 14.2424 12.7261 14.2424 12.025C14.2424 11.314 13.6724 10.7431 12.9624 10.7431C12.2624 10.7331 11.6824 11.314 11.6824 12.015ZM16.2924 12.025C16.2924 12.7261 16.8624 13.307 17.5724 13.307C18.2824 13.307 18.8524 12.7261 18.8524 12.025C18.8524 11.314 18.2824 10.7431 17.5724 10.7431C16.8624 10.7431 16.2924 11.314 16.2924 12.025ZM8.35242 13.307C7.65242 13.307 7.07242 12.7261 7.07242 12.025C7.07242 11.314 7.64242 10.7431 8.35242 10.7431C9.06242 10.7431 9.63242 11.314 9.63242 12.025C9.63242 12.7261 9.06242 13.2969 8.35242 13.307Z" fill="#7C7F93"/>
</svg>
